<svg width="60" height="60" viewBox="0 0 60 60" fill="none" xmlns="http://www.w3.org/2000/svg">
<path d="M12.5 50V10C12.5 9.33696 12.7634 8.70107 13.2322 8.23223C13.7011 7.76339 14.337 7.5 15 7.5H30.43C31.756 7.50028 33.0275 8.02725 33.965 8.965L46.035 21.035C46.9727 21.9725 47.4997 23.244 47.5 24.57V50C47.5 50.663 47.2366 51.2989 46.7678 51.7678C46.2989 52.2366 45.663 52.5 45 52.5H15C14.337 52.5 13.7011 52.2366 13.2322 51.7678C12.7634 51.2989 12.5 50.663 12.5 50Z" stroke="#FF79A2" stroke-width="5" stroke-linejoin="round"/>
<path d="M30 7.5V22.5C30 23.163 30.2634 23.7989 30.7322 24.2678C31.2011 24.7366 31.837 25 32.5 25H47.5" stroke="#FF79A2" stroke-width="5" stroke-linejoin="round"/>
</svg>
