<svg width="42" height="48" viewBox="0 0 42 48" fill="none" xmlns="http://www.w3.org/2000/svg">
<path d="M12.0173 8.82031H20.4646C22.5208 8.82031 25.2281 8.82031 26.6299 9.66903C28.1629 10.5825 29.3687 12.2451 29.3687 14.5305C29.3687 17.0085 28.0649 18.8688 25.9124 19.749V19.8155C28.7841 20.4018 30.3486 22.556 30.3486 25.426C30.3486 28.8491 27.9021 32.1128 23.2699 32.1128H12.0156V8.82031H12.0173ZM15.1149 18.8339H21.315C24.8361 18.8339 26.2728 17.5616 26.2728 15.1151C26.2728 11.8847 23.9907 11.4296 21.315 11.4296H15.1149V18.8339ZM15.1149 29.5002H22.8812C25.5553 29.5002 27.2527 27.8692 27.2527 25.3263C27.2527 22.2919 24.8062 21.4448 22.1953 21.4448H15.1149V29.5002Z" fill="black"/>
<path d="M38.273 20.4753C38.273 30.2597 30.3422 38.1922 20.5545 38.1922C10.7718 38.1922 2.84105 30.2614 2.84105 20.4753C2.84105 10.6926 10.7718 2.76185 20.5545 2.76185C30.3422 2.76185 38.273 10.691 38.273 20.4753ZM20.5545 0.0595703C9.28534 0.0595703 0.150391 9.19618 0.150391 20.4654C0.150391 31.7346 9.287 40.8712 20.5545 40.8712C31.8271 40.8712 40.9637 31.7346 40.9637 20.4654C40.9637 9.19618 31.8271 0.0595703 20.5545 0.0595703Z" fill="black"/>
<path d="M40.879 45.1748H0.150391V47.8522H40.879V45.1748Z" fill="black"/>
<path d="M39.6051 42.2284C39.655 42.2284 39.7031 42.2251 39.748 42.2235C39.7895 42.2218 39.831 42.2118 39.8659 42.1969C39.9024 42.1786 39.929 42.157 39.9489 42.1271C39.9705 42.0939 39.9788 42.0524 39.9788 41.9943C39.9788 41.9461 39.9705 41.9079 39.9523 41.8813C39.934 41.8514 39.9091 41.8315 39.8808 41.8165C39.8509 41.7999 39.821 41.79 39.7812 41.7817C39.743 41.78 39.7081 41.775 39.6682 41.775H39.3759V42.2268H39.6051V42.2284ZM39.7031 41.5973C39.8725 41.5973 39.9971 41.6305 40.0785 41.6969C40.1599 41.7667 40.203 41.8664 40.203 42.0042C40.203 42.1338 40.1648 42.2251 40.0951 42.2866C40.022 42.3447 39.934 42.3812 39.826 42.3929L40.2329 43.0174H39.9971L39.6084 42.4062H39.3759V43.0174H39.1517V41.5973H39.7031ZM38.7016 42.7151C38.7498 42.8446 38.8195 42.9542 38.9109 43.0473C38.9989 43.1403 39.1052 43.2134 39.2298 43.2665C39.3493 43.3196 39.4855 43.3429 39.6251 43.3429C39.7679 43.3429 39.9008 43.3196 40.0203 43.2665C40.1416 43.2134 40.2479 43.1386 40.3392 43.0473C40.4256 42.9542 40.4987 42.843 40.5485 42.7151C40.6017 42.5905 40.6266 42.451 40.6266 42.3048C40.6266 42.1554 40.6 42.0225 40.5485 41.8963C40.4987 41.7684 40.4273 41.6604 40.3392 41.5674C40.2479 41.476 40.1416 41.4046 40.0203 41.3498C39.9008 41.2983 39.7679 41.2701 39.6251 41.2701C39.4855 41.2701 39.3493 41.2983 39.2298 41.3498C39.1052 41.403 38.9989 41.476 38.9109 41.5674C38.8195 41.6604 38.7498 41.7684 38.7016 41.8963C38.6501 42.0225 38.6252 42.1554 38.6252 42.3048C38.6235 42.451 38.6484 42.5889 38.7016 42.7151ZM38.499 41.8232C38.5637 41.677 38.6534 41.5525 38.7631 41.4412C38.8743 41.3316 39.0055 41.2502 39.1534 41.1871C39.3012 41.1239 39.4606 41.0957 39.6234 41.0957C39.7928 41.0957 39.9506 41.1239 40.1001 41.1871C40.2446 41.2502 40.3725 41.3316 40.4821 41.4412C40.5917 41.5525 40.683 41.677 40.7462 41.8232C40.8143 41.971 40.8442 42.1321 40.8442 42.3048C40.8442 42.4792 40.8143 42.6403 40.7462 42.7865C40.683 42.9376 40.5917 43.0639 40.4821 43.1735C40.3725 43.2864 40.2446 43.3678 40.1001 43.4309C39.9489 43.4907 39.7928 43.5206 39.6234 43.5206C39.4606 43.5206 39.2995 43.4907 39.1534 43.4309C39.0039 43.3678 38.8743 43.2864 38.7631 43.1735C38.6534 43.0639 38.5637 42.936 38.499 42.7865C38.4309 42.6403 38.4043 42.4792 38.4043 42.3048C38.4043 42.1321 38.4309 41.971 38.499 41.8232Z" fill="black"/>
<path d="M40.8673 45.1631H0.150391V47.8388H40.8673V45.1631Z" fill="black"/>
</svg>
