<svg width="21" height="20" viewBox="0 0 21 20" fill="none" xmlns="http://www.w3.org/2000/svg">
<path d="M10.5794 1.66699C15.1818 1.66699 18.9128 5.39795 18.9128 10.0003C18.9128 14.6027 15.1818 18.3337 10.5794 18.3337C9.0512 18.3337 7.61904 17.9223 6.38766 17.2042L2.24958 18.3337L3.37621 14.1932C2.65773 12.9617 2.24609 11.5291 2.24609 10.0003C2.24609 5.39795 5.97705 1.66699 10.5794 1.66699ZM7.57221 6.0906C7.46439 6.09818 7.35867 6.12451 7.26242 6.17375C7.19021 6.21069 7.12318 6.26408 7.01785 6.36354C6.91839 6.45745 6.86075 6.53947 6.80002 6.61854C6.49194 7.01966 6.32635 7.51203 6.32943 8.01781C6.3311 8.42666 6.4373 8.82399 6.60502 9.19499C6.94513 9.94732 7.50601 10.7427 8.24689 11.4802C8.42486 11.6574 8.59922 11.8365 8.78723 12.002C9.70678 12.8117 10.8026 13.3955 11.9875 13.7072C11.9875 13.7072 12.4542 13.7788 12.461 13.7792C12.6156 13.7876 12.7699 13.7764 12.9247 13.7685C13.1674 13.756 13.4044 13.6903 13.6189 13.5761C13.7569 13.5027 13.8221 13.4662 13.9379 13.3932C13.9379 13.3932 13.9734 13.3692 14.0419 13.3182C14.1544 13.2343 14.2239 13.1753 14.3174 13.0782C14.3864 13.0065 14.4458 12.9218 14.4916 12.8264C14.5568 12.6904 14.6224 12.4308 14.6484 12.2152C14.6684 12.0506 14.6624 11.9606 14.6602 11.9048C14.6566 11.8152 14.5825 11.7229 14.5014 11.6837L14.0168 11.4659C14.0168 11.4659 13.2922 11.1506 12.849 10.9484C12.8029 10.9273 12.7524 10.9176 12.7016 10.9145C12.5904 10.9077 12.4659 10.9367 12.3866 11.0202C12.3824 11.0185 12.3273 11.0662 11.7244 11.7966C11.6911 11.8363 11.6132 11.9227 11.4784 11.9147C11.4581 11.9132 11.4379 11.9103 11.4181 11.9052C11.3635 11.8907 11.3104 11.8717 11.2584 11.8497C11.1553 11.806 11.1191 11.7894 11.0487 11.7591C10.5676 11.5489 10.1261 11.2677 9.73586 10.9237C9.63119 10.8315 9.53386 10.7322 9.43353 10.635C9.08336 10.2956 8.79669 9.93458 8.58342 9.57849C8.57178 9.55908 8.55384 9.53099 8.53451 9.49958C8.49962 9.44283 8.46114 9.37533 8.44907 9.32899C8.41809 9.20641 8.50027 9.10791 8.50027 9.10791C8.50027 9.10791 8.7031 8.88616 8.79734 8.76558C8.88801 8.64949 8.96628 8.53599 9.01611 8.45508C9.11428 8.29727 9.14536 8.13417 9.09378 8.00835C8.85998 7.43837 8.61876 6.87146 8.37016 6.30778C8.32109 6.19653 8.17515 6.11571 8.04244 6.10038C7.99749 6.09519 7.95257 6.08998 7.90744 6.08701C7.79572 6.08156 7.68378 6.08276 7.57221 6.0906Z" fill="black"/>
</svg>
