<svg width="21" height="20" viewBox="0 0 21 20" fill="none" xmlns="http://www.w3.org/2000/svg">
<path d="M12.2454 11.8763V18.333H3.91211C3.91211 14.6511 6.89688 11.6663 10.5788 11.6663C11.1543 11.6663 11.7128 11.7393 12.2454 11.8763ZM10.5788 10.833C7.81628 10.833 5.57878 8.59551 5.57878 5.83301C5.57878 3.07051 7.81628 0.833008 10.5788 0.833008C13.3413 0.833008 15.5788 3.07051 15.5788 5.83301C15.5788 8.59551 13.3413 10.833 10.5788 10.833ZM16.0669 14.1663L14.5433 12.6427L15.7218 11.4642L19.2573 14.9997L15.7218 18.5352L14.5433 17.3567L16.0669 15.833H13.0788V14.1663H16.0669Z" fill="black"/>
</svg>
