<svg width="24" height="24" viewBox="0 0 24 24" fill="none" xmlns="http://www.w3.org/2000/svg">
<g clip-path="url(#clip0_879_3706)">
<path d="M16.707 8.707L13.414 12L16.707 15.293L15.293 16.707L12 13.414L8.707 16.707L7.293 15.293L10.586 12L7.293 8.707L8.707 7.293L12 10.586L15.293 7.293L16.707 8.707ZM24 12C24 18.617 18.617 24 12 24C5.383 24 0 18.617 0 12C0 5.383 5.383 0 12 0C18.617 0 24 5.383 24 12ZM22 12C22 6.486 17.514 2 12 2C6.486 2 2 6.486 2 12C2 17.514 6.486 22 12 22C17.514 22 22 17.514 22 12Z" fill="black"/>
</g>
<defs>
<clipPath id="clip0_879_3706">
<rect width="24" height="24" fill="white"/>
</clipPath>
</defs>
</svg>
